<svg width="217" height="217" viewBox="0 0 217 217" fill="none" xmlns="http://www.w3.org/2000/svg">
<path d="M108.5 186.62C81.375 186.62 57.3965 172.732 43.4 151.9C43.7255 130.2 86.8 118.265 108.5 118.265C130.2 118.265 173.275 130.2 173.6 151.9C166.427 162.581 156.738 171.334 145.385 177.389C134.033 183.443 121.366 186.613 108.5 186.62ZM108.5 32.55C117.133 32.55 125.412 35.9794 131.516 42.0837C137.621 48.188 141.05 56.4672 141.05 65.1C141.05 73.7328 137.621 82.012 131.516 88.1163C125.412 94.2206 117.133 97.65 108.5 97.65C99.8672 97.65 91.588 94.2206 85.4837 88.1163C79.3794 82.012 75.95 73.7328 75.95 65.1C75.95 56.4672 79.3794 48.188 85.4837 42.0837C91.588 35.9794 99.8672 32.55 108.5 32.55ZM108.5 0C94.2516 0 80.1427 2.80644 66.9788 8.25907C53.815 13.7117 41.8541 21.7038 31.7789 31.7789C11.4312 52.1266 0 79.724 0 108.5C0 137.276 11.4312 164.873 31.7789 185.221C41.8541 195.296 53.815 203.288 66.9788 208.741C80.1427 214.194 94.2516 217 108.5 217C137.276 217 164.873 205.569 185.221 185.221C205.569 164.873 217 137.276 217 108.5C217 48.4995 168.175 0 108.5 0Z" fill="#1D3EAF"/>
</svg>
